<svg width="10" height="16" viewBox="0 0 10 16" fill="none" xmlns="http://www.w3.org/2000/svg">
<path fill-rule="evenodd" clip-rule="evenodd" d="M0.668776 15.5311C0.368822 15.231 0.200317 14.8241 0.200317 14.3999C0.200317 13.9756 0.368822 13.5687 0.668776 13.2687L5.93758 7.99987L0.668776 2.73107C0.377323 2.42931 0.216051 2.02514 0.219697 1.60563C0.223342 1.18611 0.391613 0.784814 0.688266 0.488161C0.984919 0.191508 1.38622 0.0232372 1.80573 0.0195917C2.22525 0.0159463 2.62941 0.177218 2.93118 0.468671L9.33118 6.86867C9.63113 7.16872 9.79963 7.57561 9.79963 7.99987C9.79963 8.42413 9.63113 8.83103 9.33118 9.13107L2.93118 15.5311C2.63113 15.831 2.22424 15.9995 1.79998 15.9995C1.37571 15.9995 0.96882 15.831 0.668776 15.5311Z" fill="black"/>
</svg>
