<svg width="10" height="16" viewBox="0 0 10 16" fill="none" xmlns="http://www.w3.org/2000/svg">
<path fill-rule="evenodd" clip-rule="evenodd" d="M9.3311 0.468929C9.63106 0.768973 9.79956 1.17587 9.79956 1.60013C9.79956 2.02439 9.63106 2.43128 9.3311 2.73133L4.0623 8.00013L9.3311 13.2689C9.62256 13.5707 9.78383 13.9749 9.78018 14.3944C9.77654 14.8139 9.60826 15.2152 9.31161 15.5118C9.01496 15.8085 8.61366 15.9768 8.19414 15.9804C7.77463 15.9841 7.37047 15.8228 7.0687 15.5313L0.668703 9.13133C0.368749 8.83128 0.200245 8.42439 0.200245 8.00013C0.200245 7.57587 0.36875 7.16897 0.668703 6.86893L7.0687 0.468928C7.36875 0.168975 7.77564 0.000469891 8.1999 0.000469928C8.62417 0.000469965 9.03106 0.168975 9.3311 0.468929Z" fill="black"/>
</svg>
