<svg width="40" height="40" viewBox="0 0 40 40" fill="none" xmlns="http://www.w3.org/2000/svg">
<rect width="40" height="40" rx="4" fill="url(#paint0_linear_56_101)"/>
<path d="M12.0032 15.884L20.0002 19.882L27.9972 15.884C27.9676 15.3744 27.7443 14.8955 27.373 14.5452C27.0017 14.195 26.5106 13.9999 26.0002 14H14.0002C13.4898 13.9999 12.9986 14.195 12.6274 14.5452C12.2561 14.8955 12.0328 15.3744 12.0032 15.884Z" fill="white"/>
<path d="M28 18.1177L20 22.1177L12 18.1177V23.9997C12 24.5301 12.2107 25.0388 12.5858 25.4139C12.9609 25.789 13.4696 25.9997 14 25.9997H26C26.5304 25.9997 27.0391 25.789 27.4142 25.4139C27.7893 25.0388 28 24.5301 28 23.9997V18.1177Z" fill="white"/>
<defs>
<linearGradient id="paint0_linear_56_101" x1="0" y1="20" x2="40" y2="20" gradientUnits="userSpaceOnUse">
<stop stop-color="#C4564F"/>
<stop offset="1" stop-color="#A74943"/>
</linearGradient>
</defs>
</svg>
