<svg width="40" height="40" viewBox="0 0 40 40" fill="none" xmlns="http://www.w3.org/2000/svg">
<rect width="40" height="40" rx="2.5" fill="url(#paint0_linear_56_91)"/>
<path fill-rule="evenodd" clip-rule="evenodd" d="M15.05 14.0499C16.3628 12.737 18.1434 11.9995 20 11.9995C21.8566 11.9995 23.6372 12.737 24.95 14.0499C26.2628 15.3627 27.0004 17.1433 27.0004 18.9999C27.0004 20.8565 26.2628 22.637 24.95 23.9499L20 28.8999L15.05 23.9499C14.3999 23.2998 13.8843 22.5281 13.5324 21.6788C13.1806 20.8295 12.9995 19.9192 12.9995 18.9999C12.9995 18.0806 13.1806 17.1702 13.5324 16.3209C13.8843 15.4716 14.3999 14.6999 15.05 14.0499ZM20 20.9999C20.5304 20.9999 21.0392 20.7892 21.4142 20.4141C21.7893 20.039 22 19.5303 22 18.9999C22 18.4694 21.7893 17.9607 21.4142 17.5857C21.0392 17.2106 20.5304 16.9999 20 16.9999C19.4696 16.9999 18.9609 17.2106 18.5858 17.5857C18.2107 17.9607 18 18.4694 18 18.9999C18 19.5303 18.2107 20.039 18.5858 20.4141C18.9609 20.7892 19.4696 20.9999 20 20.9999Z" fill="white"/>
<defs>
<linearGradient id="paint0_linear_56_91" x1="0" y1="20" x2="40" y2="20" gradientUnits="userSpaceOnUse">
<stop stop-color="#C4564F"/>
<stop offset="1" stop-color="#A74943"/>
</linearGradient>
</defs>
</svg>
