<svg width="40" height="40" viewBox="0 0 40 40" fill="none" xmlns="http://www.w3.org/2000/svg">
<rect width="40" height="40" rx="4" fill="url(#paint0_linear_56_93)"/>
<path d="M12 13C12 12.7348 12.1054 12.4804 12.2929 12.2929C12.4804 12.1054 12.7348 12 13 12H15.153C15.3897 12.0001 15.6187 12.0842 15.7992 12.2373C15.9798 12.3903 16.1002 12.6025 16.139 12.836L16.879 17.271C16.9144 17.4822 16.881 17.6992 16.7838 17.89C16.6866 18.0809 16.5306 18.2354 16.339 18.331L14.791 19.104C15.3461 20.4797 16.1728 21.7293 17.2218 22.7782C18.2707 23.8272 19.5203 24.6539 20.896 25.209L21.67 23.661C21.7655 23.4695 21.9199 23.3138 22.1106 23.2166C22.3012 23.1194 22.5179 23.0859 22.729 23.121L27.164 23.861C27.3975 23.8998 27.6097 24.0202 27.7627 24.2008C27.9158 24.3813 27.9999 24.6103 28 24.847V27C28 27.2652 27.8946 27.5196 27.7071 27.7071C27.5196 27.8946 27.2652 28 27 28H25C17.82 28 12 22.18 12 15V13Z" fill="white"/>
<defs>
<linearGradient id="paint0_linear_56_93" x1="0" y1="20" x2="40" y2="20" gradientUnits="userSpaceOnUse">
<stop stop-color="#C4564F"/>
<stop offset="1" stop-color="#A74943"/>
</linearGradient>
</defs>
</svg>
