<svg width="20" height="20" viewBox="0 0 20 20" fill="none" xmlns="http://www.w3.org/2000/svg">
<path fill-rule="evenodd" clip-rule="evenodd" d="M10 19.6C12.5461 19.6 14.9879 18.5886 16.7882 16.7882C18.5886 14.9879 19.6 12.5461 19.6 10C19.6 7.45395 18.5886 5.01215 16.7882 3.2118C14.9879 1.41145 12.5461 0.400024 10 0.400024C7.45395 0.400024 5.01215 1.41145 3.2118 3.2118C1.41145 5.01215 0.400024 7.45395 0.400024 10C0.400024 12.5461 1.41145 14.9879 3.2118 16.7882C5.01215 18.5886 7.45395 19.6 10 19.6ZM6.40002 8.80002C6.71828 8.80002 7.02351 8.6736 7.24855 8.44855C7.4736 8.22351 7.60002 7.91828 7.60002 7.60002C7.60002 7.28176 7.4736 6.97654 7.24855 6.7515C7.02351 6.52645 6.71828 6.40002 6.40002 6.40002C6.08176 6.40002 5.77654 6.52645 5.5515 6.7515C5.32645 6.97654 5.20002 7.28176 5.20002 7.60002C5.20002 7.91828 5.32645 8.22351 5.5515 8.44855C5.77654 8.6736 6.08176 8.80002 6.40002 8.80002ZM14.8 7.60002C14.8 7.91828 14.6736 8.22351 14.4486 8.44855C14.2235 8.6736 13.9183 8.80002 13.6 8.80002C13.2818 8.80002 12.9765 8.6736 12.7515 8.44855C12.5265 8.22351 12.4 7.91828 12.4 7.60002C12.4 7.28176 12.5265 6.97654 12.7515 6.7515C12.9765 6.52645 13.2818 6.40002 13.6 6.40002C13.9183 6.40002 14.2235 6.52645 14.4486 6.7515C14.6736 6.97654 14.8 7.28176 14.8 7.60002ZM14.2432 14.242C14.3546 14.1305 14.443 13.9982 14.5033 13.8525C14.5635 13.7069 14.5945 13.5508 14.5945 13.3932C14.5944 13.2356 14.5633 13.0795 14.5029 12.9339C14.4426 12.7883 14.3541 12.656 14.2426 12.5446C14.1311 12.4332 13.9988 12.3448 13.8531 12.2846C13.7075 12.2243 13.5514 12.1933 13.3938 12.1934C13.2362 12.1934 13.0801 12.2245 12.9345 12.2849C12.7889 12.3453 12.6566 12.4337 12.5452 12.5452C11.8701 13.2201 10.9546 13.5993 10 13.5993C9.04543 13.5993 8.12992 13.2201 7.45482 12.5452C7.22982 12.3201 6.92457 12.1935 6.60625 12.1934C6.28792 12.1933 5.98259 12.3196 5.75742 12.5446C5.53226 12.7696 5.40569 13.0749 5.40558 13.3932C5.40547 13.7115 5.53182 14.0169 5.75682 14.242C6.314 14.7993 6.9755 15.2414 7.70356 15.5431C8.43161 15.8447 9.21196 15.9999 10 15.9999C10.7881 15.9999 11.5684 15.8447 12.2965 15.5431C13.0245 15.2414 13.6861 14.7993 14.2432 14.242Z" fill="white"/>
</svg>
