<svg width="20" height="19" viewBox="0 0 20 19" fill="none" xmlns="http://www.w3.org/2000/svg">
<path d="M8.76743 0.895205C9.15623 -0.298402 10.8449 -0.298402 11.2324 0.895205L12.6191 5.1616C12.7038 5.42143 12.8685 5.64783 13.0897 5.80844C13.3108 5.96904 13.577 6.05564 13.8503 6.05584H18.337C19.5928 6.05584 20.1138 7.66286 19.0991 8.40158L15.4703 11.0376C15.2487 11.1984 15.0837 11.4251 14.999 11.6854C14.9142 11.9457 14.9141 12.2262 14.9986 12.4865L16.3853 16.7529C16.7741 17.9465 15.4068 18.9406 14.3894 18.2019L10.7607 15.5658C10.5393 15.4051 10.2728 15.3186 9.99927 15.3186C9.72574 15.3186 9.45922 15.4051 9.23788 15.5658L5.60911 18.2019C4.59305 18.9406 3.22707 17.9465 3.61458 16.7529L5.00129 12.4865C5.08575 12.2262 5.0856 11.9457 5.00085 11.6854C4.91611 11.4251 4.75112 11.1984 4.52954 11.0376L0.902069 8.40288C-0.112692 7.66416 0.409593 6.05713 1.66411 6.05713H6.14953C6.42305 6.05721 6.68957 5.97074 6.91096 5.81011C7.13234 5.64949 7.29723 5.42294 7.38202 5.1629L8.76873 0.896501L8.76743 0.895205Z" fill="white"/>
</svg>
